<?xml version="1.0" encoding="UTF-8" standalone="no"?>
<!DOCTYPE svg PUBLIC "-//W3C//DTD SVG 1.1//EN" "http://www.w3.org/Graphics/SVG/1.1/DTD/svg11.dtd">
<svg width="100%" height="100%" viewBox="0 0 19 19" version="1.1" xmlns="http://www.w3.org/2000/svg" xmlns:xlink="http://www.w3.org/1999/xlink" xml:space="preserve" xmlns:serif="http://www.serif.com/" style="fill-rule:evenodd;clip-rule:evenodd;stroke-linejoin:round;stroke-miterlimit:2;">
    <g id="Artboard1" transform="matrix(1,0,0,1,0.251765,0.165843)">
        <rect x="-0.252" y="-0.166" width="18.396" height="18.259" style="fill:none;"/>
        <g transform="matrix(1,0,0,1,-5.51981,-4.06192)">
            <g>
                <g transform="matrix(1,0,0,1,2.4662,1.02557)">
                    <path d="M19,19L5,19L5,5L12,5L12,3L3,3L3,21L21,21L21,12L19,12L19,19Z" style="fill:white;fill-rule:nonzero;"/>
                </g>
                <g transform="matrix(1,0,0,1,2.4662,1.02557)">
                    <path d="M21,3L14,3L14,5L17.59,5L12.93,9.66L14.34,11.07L19,6.41L19,10L21,10L21,3Z" style="fill:white;fill-rule:nonzero;"/>
                </g>
            </g>
        </g>
    </g>
</svg>
